<?xml version="1.0" encoding="UTF-8" standalone="no"?>
<!DOCTYPE svg PUBLIC "-//W3C//DTD SVG 1.1//EN" "http://www.w3.org/Graphics/SVG/1.1/DTD/svg11.dtd">
<svg width="100%" height="100%" viewBox="0 0 71 71" version="1.1" xmlns="http://www.w3.org/2000/svg" xmlns:xlink="http://www.w3.org/1999/xlink" xml:space="preserve" xmlns:serif="http://www.serif.com/" style="fill-rule:evenodd;clip-rule:evenodd;stroke-linejoin:round;stroke-miterlimit:2;">
    <g transform="matrix(1,0,0,1,-4569,-3386)">
        <g id="icon-video" serif:id="icon video" transform="matrix(0.30573,0,0,0.323101,3177.22,2307.09)">
            <rect x="4553.07" y="3342.12" width="228.96" height="216.651" style="fill:none;"/>
            <g id="video" transform="matrix(0.242635,0,0,0.22959,4597.67,3391.67)">
                <path d="M336.2,64L47.8,64C21.4,64 0,85.4 0,111.8L0,400.2C0,426.6 21.4,448 47.8,448L336.2,448C362.6,448 384,426.6 384,400.2L384,111.8C384,85.4 362.6,64 336.2,64ZM525.6,101.7L416,177.3L416,334.7L525.6,410.2C546.8,424.8 576,409.9 576,384.4L576,127.5C576,102.1 546.9,87.1 525.6,101.7Z" style="fill:white;fill-rule:nonzero;"/>
            </g>
        </g>
    </g>
</svg>
